<?xml version="1.0" encoding="utf-8"?>
<!DOCTYPE svg
  PUBLIC '-//W3C//DTD SVG 1.0//EN'
  'http://www.w3.org/TR/2001/REC-SVG-20010904/DTD/svg10.dtd'>
<svg width="460" height="480" preserveAspectRatio="xMinYMin meet" viewBox="0 0 460 480" xmlns="http://www.w3.org/2000/svg" version="1.0" fill-rule="evenodd" xmlns:xlink="http://www.w3.org/1999/xlink">
	<title>...</title>
	<desc>...</desc>
	<clipPath id="clip">
		<rect x="0" y="0" width="460" height="480"/>
	</clipPath>
	<g id="group" transform="scale(1,-1) translate(0,-480)" style="clip-path: url(#clip)">
		<g transform="">
			<rect x="10" y="395" width="130" height="49" style="stroke: rgb(0%,0%,0%); stroke-linecap: butt; stroke-width: 0.9; fill: rgb(95%,95%,95%); fill-rule: evenodd;"/>
			<text x="23.47900390625" y="422.5" style="font-family: PatentVI; font-size: 10px;fill: rgb(0%,0%,0%); stroke:none;" transform="translate(0,845) scale(1,-1)">Mô hình thân / khoang xe</text>
			<text x="64.169921875" y="410.5" style="font-family: PatentVI; font-size: 10px;fill: rgb(0%,0%,0%); stroke:none;" transform="translate(0,821) scale(1,-1)">(802)</text>
			<path d="M 75,395 L 230,350 Z" style="stroke: rgb(0%,0%,0%); stroke-linecap: butt; stroke-width: 0.9;"/>
			<polygon points="230 350, 224.7957 354.6814, 223.0979 348.8334" style="stroke: rgb(0%,0%,0%); stroke-linecap: butt; stroke-width: 1; fill: rgb(0%,0%,0%); fill-rule: evenodd;"/>
			<rect x="165" y="395" width="130" height="49" style="stroke: rgb(0%,0%,0%); stroke-linecap: butt; stroke-width: 0.9; fill: rgb(95%,95%,95%); fill-rule: evenodd;"/>
			<text x="179.58740234375" y="422.5" style="font-family: PatentVI; font-size: 10px;fill: rgb(0%,0%,0%); stroke:none;" transform="translate(0,845) scale(1,-1)">Mô hình bánh / khung xe</text>
			<text x="219.169921875" y="410.5" style="font-family: PatentVI; font-size: 10px;fill: rgb(0%,0%,0%); stroke:none;" transform="translate(0,821) scale(1,-1)">(802)</text>
			<path d="M 230,395 L 230,350 Z" style="stroke: rgb(0%,0%,0%); stroke-linecap: butt; stroke-width: 0.9;"/>
			<polygon points="230 350, 233.0448 356.3031, 226.9552 356.3031" style="stroke: rgb(0%,0%,0%); stroke-linecap: butt; stroke-width: 1; fill: rgb(0%,0%,0%); fill-rule: evenodd;"/>
			<rect x="320" y="395" width="130" height="49" style="stroke: rgb(0%,0%,0%); stroke-linecap: butt; stroke-width: 0.9; fill: rgb(95%,95%,95%); fill-rule: evenodd;"/>
			<text x="329.033203125" y="422.5" style="font-family: PatentVI; font-size: 10px;fill: rgb(0%,0%,0%); stroke:none;" transform="translate(0,845) scale(1,-1)">Mô hình truyền động / năng</text>
			<text x="361.1767578125" y="410.5" style="font-family: PatentVI; font-size: 10px;fill: rgb(0%,0%,0%); stroke:none;" transform="translate(0,821) scale(1,-1)">lượng (802)</text>
			<path d="M 385,395 L 230,350 Z" style="stroke: rgb(0%,0%,0%); stroke-linecap: butt; stroke-width: 0.9;"/>
			<polygon points="230 350, 236.9021 348.8334, 235.2043 354.6814" style="stroke: rgb(0%,0%,0%); stroke-linecap: butt; stroke-width: 1; fill: rgb(0%,0%,0%); fill-rule: evenodd;"/>
			<rect x="84" y="294" width="292" height="56" style="stroke: rgb(0%,0%,0%); stroke-linecap: butt; stroke-width: 0.9; fill: rgb(95%,95%,95%); fill-rule: evenodd;"/>
			<text x="175.0146484375" y="325.0" style="font-family: PatentVI; font-size: 10px;fill: rgb(0%,0%,0%); stroke:none;" transform="translate(0,650) scale(1,-1)">Ngẫu nhiên hóa miền (804)</text>
			<text x="148.076171875" y="313.0" style="font-family: PatentVI; font-size: 10px;fill: rgb(0%,0%,0%); stroke:none;" transform="translate(0,626) scale(1,-1)">Góc nhìn / ánh sáng / vật liệu / che khuất</text>
			<path d="M 230,294 L 230,259 Z" style="stroke: rgb(0%,0%,0%); stroke-linecap: butt; stroke-width: 0.9;"/>
			<polygon points="230 259, 233.0448 265.3031, 226.9552 265.3031" style="stroke: rgb(0%,0%,0%); stroke-linecap: butt; stroke-width: 1; fill: rgb(0%,0%,0%); fill-rule: evenodd;"/>
			<rect x="84" y="210" width="292" height="49" style="stroke: rgb(0%,0%,0%); stroke-linecap: butt; stroke-width: 0.9; fill: rgb(95%,95%,95%); fill-rule: evenodd;"/>
			<text x="185.80322265625" y="237.5" style="font-family: PatentVI; font-size: 10px;fill: rgb(0%,0%,0%); stroke:none;" transform="translate(0,475) scale(1,-1)">Kết xuất + nhãn (806)</text>
			<text x="146.95556640625" y="225.5" style="font-family: PatentVI; font-size: 10px;fill: rgb(0%,0%,0%); stroke:none;" transform="translate(0,451) scale(1,-1)">RGB / mặt nạ / vùng / tình trạng cấu hình</text>
			<path d="M 230,210 L 230,171 Z" style="stroke: rgb(0%,0%,0%); stroke-linecap: butt; stroke-width: 0.9;"/>
			<polygon points="230 171, 233.0448 177.3031, 226.9552 177.3031" style="stroke: rgb(0%,0%,0%); stroke-linecap: butt; stroke-width: 1; fill: rgb(0%,0%,0%); fill-rule: evenodd;"/>
			<rect x="20" y="119" width="190" height="52" style="stroke: rgb(0%,0%,0%); stroke-linecap: butt; stroke-width: 0.9; fill: rgb(95%,95%,95%); fill-rule: evenodd;"/>
			<text x="70.27587890625" y="148.0" style="font-family: PatentVI; font-size: 10px;fill: rgb(0%,0%,0%); stroke:none;" transform="translate(0,296) scale(1,-1)">Nguồn tổng hợp (808)</text>
			<text x="40.63720703125" y="136.0" style="font-family: PatentVI; font-size: 10px;fill: rgb(0%,0%,0%); stroke:none;" transform="translate(0,272) scale(1,-1)">Không tính vào mẫu thực thăng hạng</text>
			<rect x="250" y="119" width="190" height="52" style="stroke: rgb(0%,0%,0%); stroke-linecap: butt; stroke-width: 0.9; fill: rgb(95%,95%,95%); fill-rule: evenodd;"/>
			<text x="280.42724609375" y="148.0" style="font-family: PatentVI; font-size: 10px;fill: rgb(0%,0%,0%); stroke:none;" transform="translate(0,296) scale(1,-1)">Dữ liệu thực đã thẩm định (810)</text>
			<text x="302.0849609375" y="136.0" style="font-family: PatentVI; font-size: 10px;fill: rgb(0%,0%,0%); stroke:none;" transform="translate(0,272) scale(1,-1)">Mẫu lớp đủ điều kiện</text>
			<path d="M 210,145 L 250,145 Z" style="stroke: rgb(0%,0%,0%); stroke-linecap: butt; stroke-width: 0.9;"/>
			<polygon points="250 145, 243.6969 148.0448, 243.6969 141.9552" style="stroke: rgb(0%,0%,0%); stroke-linecap: butt; stroke-width: 1; fill: rgb(0%,0%,0%); fill-rule: evenodd;"/>
			<path d="M 115,119 L 175,77 Z" style="stroke: rgb(0%,0%,0%); stroke-linecap: butt; stroke-width: 0.9;"/>
			<polygon points="175 77, 171.5823 83.10897, 168.0902 78.12024" style="stroke: rgb(0%,0%,0%); stroke-linecap: butt; stroke-width: 1; fill: rgb(0%,0%,0%); fill-rule: evenodd;"/>
			<path d="M 345,119 L 285,77 Z" style="stroke: rgb(0%,0%,0%); stroke-linecap: butt; stroke-width: 0.9;"/>
			<polygon points="285 77, 291.9098 78.12024, 288.4177 83.10897" style="stroke: rgb(0%,0%,0%); stroke-linecap: butt; stroke-width: 1; fill: rgb(0%,0%,0%); fill-rule: evenodd;"/>
			<rect x="95" y="30" width="270" height="47" style="stroke: rgb(0%,0%,0%); stroke-linecap: butt; stroke-width: 0.9; fill: rgb(95%,95%,95%); fill-rule: evenodd;"/>
			<text x="160.63720703125" y="56.5" style="font-family: PatentVI; font-size: 10px;fill: rgb(0%,0%,0%); stroke:none;" transform="translate(0,113) scale(1,-1)">Huấn luyện / thích nghi thực (812)</text>
			<text x="161.9580078125" y="44.5" style="font-family: PatentVI; font-size: 10px;fill: rgb(0%,0%,0%); stroke:none;" transform="translate(0,89) scale(1,-1)">Triển khai mô hình gắn theo vùng</text>
			<text x="102.45751953124999" y="9" style="font-family: PatentVI; font-size: 9px;fill: rgb(0%,0%,0%); stroke:none;" transform="translate(0,18) scale(1,-1)">Tổng hợp ngoại tuyến; không bắt buộc tái dựng ba chiều khi vận hành.</text>
		</g>
	</g>
</svg>
